<svg width="130" height="36" viewBox="0 0 130 36" fill="none" xmlns="http://www.w3.org/2000/svg">
<path d="M58.1989 14H55.5568C55.4006 13.2401 55.1271 12.5724 54.7365 11.9972C54.353 11.4219 53.8842 10.9389 53.3303 10.5483C52.7834 10.1506 52.1761 9.85227 51.5085 9.65341C50.8409 9.45455 50.1449 9.35511 49.4205 9.35511C48.0994 9.35511 46.9027 9.68892 45.8303 10.3565C44.7649 11.0241 43.9162 12.0078 43.2841 13.3075C42.6591 14.6072 42.3466 16.2017 42.3466 18.0909C42.3466 19.9801 42.6591 21.5746 43.2841 22.8743C43.9162 24.174 44.7649 25.1577 45.8303 25.8253C46.9027 26.4929 48.0994 26.8267 49.4205 26.8267C50.1449 26.8267 50.8409 26.7273 51.5085 26.5284C52.1761 26.3295 52.7834 26.0348 53.3303 25.6442C53.8842 25.2464 54.353 24.7599 54.7365 24.1847C55.1271 23.6023 55.4006 22.9347 55.5568 22.1818H58.1989C58 23.2969 57.6378 24.2947 57.1122 25.1754C56.5866 26.0561 55.9332 26.8054 55.152 27.4233C54.3707 28.0341 53.4936 28.4993 52.5206 28.8189C51.5547 29.1385 50.5213 29.2983 49.4205 29.2983C47.5597 29.2983 45.9048 28.8438 44.456 27.9347C43.0071 27.0256 41.8672 25.733 41.0362 24.0568C40.2053 22.3807 39.7898 20.392 39.7898 18.0909C39.7898 15.7898 40.2053 13.8011 41.0362 12.125C41.8672 10.4489 43.0071 9.15625 44.456 8.24716C45.9048 7.33807 47.5597 6.88352 49.4205 6.88352C50.5213 6.88352 51.5547 7.04332 52.5206 7.36293C53.4936 7.68253 54.3707 8.15128 55.152 8.76918C55.9332 9.37997 56.5866 10.1257 57.1122 11.0064C57.6378 11.88 58 12.8778 58.1989 14ZM64.6415 7.18182V29H62.1273V7.18182H64.6415ZM74.0618 29.3835C73.0249 29.3835 72.0838 29.1882 71.2386 28.7976C70.3935 28.3999 69.7223 27.8281 69.2251 27.0824C68.728 26.3295 68.4794 25.4205 68.4794 24.3551C68.4794 23.4176 68.6641 22.6577 69.0334 22.0753C69.4027 21.4858 69.8963 21.0241 70.5142 20.6903C71.1321 20.3565 71.8139 20.108 72.5597 19.9446C73.3125 19.7741 74.0689 19.6392 74.8288 19.5398C75.8232 19.4119 76.6293 19.3161 77.2472 19.2521C77.8722 19.1811 78.3267 19.0639 78.6108 18.9006C78.902 18.7372 79.0476 18.4531 79.0476 18.0483V17.9631C79.0476 16.9119 78.7599 16.0952 78.1847 15.5128C77.6165 14.9304 76.7536 14.6392 75.5959 14.6392C74.3956 14.6392 73.4545 14.902 72.7727 15.4276C72.0909 15.9531 71.6115 16.5142 71.3345 17.1108L68.9482 16.2585C69.3743 15.2642 69.9425 14.4901 70.6527 13.9361C71.37 13.375 72.1513 12.9844 72.9964 12.7642C73.8487 12.5369 74.6868 12.4233 75.5107 12.4233C76.0362 12.4233 76.6399 12.4872 77.3217 12.6151C78.0107 12.7358 78.6747 12.9879 79.3139 13.3714C79.9602 13.755 80.4964 14.3338 80.9226 15.108C81.3487 15.8821 81.5618 16.919 81.5618 18.2188V29H79.0476V26.7841H78.9197C78.7493 27.1392 78.4652 27.5192 78.0675 27.924C77.6697 28.3288 77.1406 28.6733 76.4801 28.9574C75.8196 29.2415 75.0135 29.3835 74.0618 29.3835ZM74.4453 27.125C75.4396 27.125 76.2777 26.9297 76.9595 26.5391C77.6484 26.1484 78.1669 25.6442 78.5149 25.0263C78.87 24.4084 79.0476 23.7585 79.0476 23.0767V20.7756C78.9411 20.9034 78.7067 21.0206 78.3445 21.1271C77.9893 21.2266 77.5774 21.3153 77.1087 21.3935C76.647 21.4645 76.196 21.5284 75.7557 21.5852C75.3224 21.6349 74.9709 21.6776 74.701 21.7131C74.0476 21.7983 73.4368 21.9368 72.8686 22.1286C72.3075 22.3132 71.853 22.5937 71.505 22.9702C71.1641 23.3395 70.9936 23.8437 70.9936 24.483C70.9936 25.3565 71.3168 26.017 71.9631 26.4645C72.6165 26.9048 73.4439 27.125 74.4453 27.125ZM86.1507 29V12.6364H88.5797V15.108H88.7502C89.0485 14.2983 89.5882 13.6413 90.3695 13.1371C91.1507 12.6328 92.0314 12.3807 93.0115 12.3807C93.1962 12.3807 93.427 12.3842 93.704 12.3913C93.981 12.3984 94.1905 12.4091 94.3326 12.4233V14.9801C94.2473 14.9588 94.052 14.9268 93.7466 14.8842C93.4483 14.8345 93.1323 14.8097 92.7985 14.8097C92.003 14.8097 91.2928 14.9766 90.6678 15.3104C90.0499 15.6371 89.5598 16.0916 89.1976 16.674C88.8425 17.2493 88.665 17.9062 88.665 18.6449V29H86.1507ZM97.3129 29V12.6364H99.8271V29H97.3129ZM98.5913 9.90909C98.1012 9.90909 97.6786 9.74219 97.3235 9.40838C96.9755 9.07457 96.8015 8.6733 96.8015 8.20455C96.8015 7.7358 96.9755 7.33452 97.3235 7.00071C97.6786 6.6669 98.1012 6.5 98.5913 6.5C99.0813 6.5 99.5004 6.6669 99.8484 7.00071C100.203 7.33452 100.381 7.7358 100.381 8.20455C100.381 8.6733 100.203 9.07457 99.8484 9.40838C99.5004 9.74219 99.0813 9.90909 98.5913 9.90909ZM111.548 12.6364V14.767H103.068V12.6364H111.548ZM105.54 8.71591H108.054V24.3125C108.054 25.0227 108.157 25.5554 108.363 25.9105C108.576 26.2585 108.846 26.4929 109.173 26.6136C109.507 26.7273 109.858 26.7841 110.227 26.7841C110.504 26.7841 110.732 26.7699 110.909 26.7415C111.087 26.706 111.229 26.6776 111.335 26.6562L111.847 28.9148C111.676 28.9787 111.438 29.0426 111.133 29.1065C110.828 29.1776 110.441 29.2131 109.972 29.2131C109.262 29.2131 108.566 29.0604 107.884 28.755C107.209 28.4496 106.648 27.9844 106.2 27.3594C105.76 26.7344 105.54 25.946 105.54 24.9943V8.71591ZM116.95 35.1364C116.524 35.1364 116.144 35.1009 115.81 35.0298C115.476 34.9659 115.245 34.902 115.117 34.8381L115.757 32.6222C116.367 32.7784 116.907 32.8352 117.376 32.7926C117.845 32.75 118.26 32.5405 118.622 32.1641C118.992 31.7947 119.329 31.1946 119.634 30.3636L120.103 29.0852L114.052 12.6364H116.779L121.296 25.6761H121.467L125.984 12.6364H128.711L121.765 31.3864C121.453 32.2315 121.066 32.9311 120.604 33.4851C120.142 34.0462 119.606 34.4616 118.995 34.7315C118.392 35.0014 117.71 35.1364 116.95 35.1364Z" fill="black"/>
<path fill-rule="evenodd" clip-rule="evenodd" d="M15 33C23.2843 33 30 26.2843 30 18C30 9.71573 23.2843 3 15 3C6.71573 3 0 9.71573 0 18C0 26.2843 6.71573 33 15 33ZM15 27C19.9706 27 24 22.9706 24 18C24 13.0294 19.9706 9 15 9C10.0294 9 6 13.0294 6 18C6 22.9706 10.0294 27 15 27Z" fill="url(#paint0_linear_39_360)"/>
<defs>
<linearGradient id="paint0_linear_39_360" x1="15" y1="3" x2="15" y2="33" gradientUnits="userSpaceOnUse">
<stop stop-color="#793FDF"/>
<stop offset="1" stop-color="#7091F5"/>
</linearGradient>
</defs>
</svg>
